<svg width="45" height="41" viewBox="0 0 45 41" fill="none" xmlns="http://www.w3.org/2000/svg">
<path d="M22.5 41C34.9264 41 45 31.8218 45 20.5C45 9.17816 34.9264 0 22.5 0C10.0736 0 0 9.17816 0 20.5C0 31.8218 10.0736 41 22.5 41Z" fill="#F3BA2F"/>
<path d="M17.0381 18.4551L22.5 13.4788L27.9647 18.4577L31.1428 15.5621L22.5 7.6875L13.86 15.5595L17.0381 18.4551ZM8.4375 20.5L11.6156 17.6044L14.7938 20.5L11.6156 23.3956L8.4375 20.5ZM17.0381 22.5449L22.5 27.5212L27.9647 22.5423L31.1428 25.4367L22.5 33.3125L13.86 25.4405L13.8558 25.4367L17.0381 22.5449ZM30.2062 20.5L33.3844 17.6044L36.5625 20.5L33.3844 23.3956L30.2062 20.5ZM25.7231 20.4974H25.7259V20.5L22.5 23.4392L19.2783 20.5051L19.2727 20.5L19.2783 20.4962L19.8422 19.9811L20.1164 19.7312L22.5 17.5608L25.7245 20.4987L25.7231 20.4974Z" fill="white"/>
</svg>
