<svg width="48" height="38" viewBox="0 0 48 38" fill="none" xmlns="http://www.w3.org/2000/svg">
<path d="M24 38C37.2548 38 48 29.4934 48 19C48 8.50659 37.2548 0 24 0C10.7452 0 0 8.50659 0 19C0 29.4934 10.7452 38 24 38Z" fill="#F7931A"/>
<path d="M34.7835 16.6488C35.2545 14.1598 32.859 12.8214 29.586 11.9284L30.648 8.55594L28.056 8.04531L27.021 11.3287C26.34 11.1934 25.641 11.0675 24.9435 10.9416L25.986 7.63681L23.394 7.125L22.332 10.4963C21.768 10.3942 21.213 10.2944 20.676 10.1876L20.679 10.1769L17.103 9.47031L16.413 11.6624C16.413 11.6624 18.3375 12.0116 18.297 12.0329C19.347 12.2408 19.536 12.7906 19.5045 13.2276L18.2955 17.0691C18.3675 17.0834 18.4605 17.1047 18.5655 17.1368L18.291 17.0834L16.596 22.4651C16.467 22.7169 16.1415 23.0957 15.4065 22.952C15.4335 22.9817 13.5225 22.5803 13.5225 22.5803L12.2355 24.9292L15.6105 25.5954C16.2375 25.7201 16.8525 25.8507 17.457 25.973L16.3845 29.3835L18.975 29.8941L20.037 26.5216C20.745 26.6724 21.432 26.8126 22.104 26.9456L21.045 30.3038L23.637 30.8144L24.7095 27.4111C29.1315 28.0737 32.4555 27.8065 33.855 24.6406C34.983 22.0923 33.7995 20.6209 31.473 19.6626C33.168 19.3539 34.443 18.4716 34.7835 16.6488ZM28.8585 23.2251C28.059 25.7747 22.6365 24.396 20.8785 24.0504L22.3035 19.532C24.0615 19.8799 29.697 20.5675 28.8585 23.2251ZM29.661 16.6119C28.9305 18.9311 24.4185 17.7519 22.956 17.4634L24.246 13.3665C25.7085 13.6551 30.423 14.193 29.661 16.6119Z" fill="white"/>
</svg>
