<svg width="44" height="41" viewBox="0 0 44 41" fill="none" xmlns="http://www.w3.org/2000/svg">
<path d="M22 41C34.1503 41 44 31.8218 44 20.5C44 9.17816 34.1503 0 22 0C9.84974 0 0 9.17816 0 20.5C0 31.8218 9.84974 41 22 41Z" fill="#627EEA"/>
<path d="M22.6848 5.125V16.4897L32.9931 20.7819L22.6848 5.125Z" fill="white" fill-opacity="0.602"/>
<path d="M22.6847 5.125L12.375 20.7819L22.6847 16.4897V5.125Z" fill="white"/>
<path d="M22.6848 28.1465V35.8686L33 22.5705L22.6848 28.1465Z" fill="white" fill-opacity="0.602"/>
<path d="M22.6847 35.8686V28.1452L12.375 22.5705L22.6847 35.8686Z" fill="white"/>
<path d="M22.6848 26.3592L32.9931 20.7819L22.6848 16.4923V26.3592Z" fill="white" fill-opacity="0.2"/>
<path d="M12.375 20.7819L22.6847 26.3592V16.4923L12.375 20.7819Z" fill="white" fill-opacity="0.602"/>
</svg>
