<svg width="9" height="8" viewBox="0 0 9 8" fill="none" xmlns="http://www.w3.org/2000/svg">
<path d="M8.50781 6.83927H0.0859375C0.0386719 6.83927 0 6.88497 0 6.94083V7.65177C0 7.70763 0.0386719 7.75333 0.0859375 7.75333H8.50781C8.55508 7.75333 8.59375 7.70763 8.59375 7.65177V6.94083C8.59375 6.88497 8.55508 6.83927 8.50781 6.83927ZM0.576855 5.24982L1.00332 5.75128C1.03662 5.79064 1.09141 5.79064 1.12471 5.75128L3.6459 2.78185L4.69434 4.0171C4.75893 4.09274 4.84618 4.13517 4.93711 4.13517C5.02804 4.13517 5.11529 4.09274 5.17988 4.0171L8.01797 0.675695C8.05127 0.63634 8.05127 0.571594 8.01797 0.532238L7.5915 0.029504C7.57535 0.0106029 7.55354 0 7.53081 0C7.50808 0 7.48627 0.0106029 7.47012 0.029504L4.93818 3.0129L3.88867 1.77765C3.82408 1.70201 3.73683 1.65958 3.6459 1.65958C3.55497 1.65958 3.46772 1.70201 3.40312 1.77765L0.576855 5.10636C0.56882 5.11574 0.56244 5.1269 0.558086 5.13922C0.553731 5.15153 0.551489 5.16474 0.551489 5.17809C0.551489 5.19143 0.553731 5.20464 0.558086 5.21696C0.56244 5.22927 0.56882 5.24044 0.576855 5.24982Z" fill="#008000"/>
</svg>
