<svg width="112" height="112" viewBox="0 0 112 112" fill="none" xmlns="http://www.w3.org/2000/svg">
<g filter="url(#filter0_d_7_207)">
<path d="M55.9822 105.964C84.6912 105.964 107.964 82.6912 107.964 53.9822C107.964 25.2732 84.6912 2 55.9822 2C27.2732 2 4 25.2732 4 53.9822C4 82.6912 27.2732 105.964 55.9822 105.964Z" fill="black"/>
</g>
<path d="M55.9822 105.964C84.6912 105.964 107.964 82.6912 107.964 53.9822C107.964 25.2732 84.6912 2 55.9822 2C27.2732 2 4 25.2732 4 53.9822C4 82.6912 27.2732 105.964 55.9822 105.964Z" fill="#2A2A2A"/>
<path d="M55.9822 105.964C84.6912 105.964 107.964 82.6912 107.964 53.9822C107.964 25.2732 84.6912 2 55.9822 2C27.2732 2 4 25.2732 4 53.9822C4 82.6912 27.2732 105.964 55.9822 105.964Z" fill="url(#paint0_linear_7_207)"/>
<path d="M55.9822 104.232C83.7343 104.232 106.232 81.7342 106.232 53.9822C106.232 26.2302 83.7343 3.73273 55.9822 3.73273C28.2302 3.73273 5.73274 26.2302 5.73274 53.9822C5.73274 81.7342 28.2302 104.232 55.9822 104.232Z" stroke="black" stroke-opacity="0.097" stroke-width="3.46548"/>
<g filter="url(#filter1_d_7_207)">
<path d="M86.2879 41.0421C83.519 39.0772 80.556 36.9805 77.6588 34.9013C77.5922 34.849 77.5228 34.8004 77.4509 34.7557C77.1114 34.4769 76.727 34.2578 76.3142 34.1077L76.2796 34.0903C68.5275 32.1881 60.7775 30.2774 53.0296 28.3584L32.2922 23.2399L31.7481 23.0944C31.1243 22.9176 30.4035 22.7201 29.6342 22.8171C29.4234 22.8494 29.2223 22.9275 29.045 23.0458L28.851 23.2087C28.608 23.4579 28.4223 23.7571 28.3069 24.0855L28.2584 24.2172V24.9622L28.293 25.0766C32.6595 37.5004 37.1439 50.1043 41.4688 62.2993C44.7991 71.6908 48.2611 81.415 51.6365 90.9658C51.8444 91.6139 52.437 92.0401 53.1752 92.1025H53.3346C53.6571 92.1108 53.9759 92.0321 54.2576 91.8748C54.5393 91.7175 54.7735 91.4873 54.9357 91.2084L67.6193 72.4497C70.7071 67.8857 73.7983 63.3078 76.8895 58.7438L80.6842 53.1228C82.7635 50.0385 84.9121 46.8537 87.0433 43.7521L87.1542 43.5927V43.3951C87.2028 42.8268 87.2166 41.6589 86.2879 41.0386M71.4279 47.8795C68.4476 49.4528 65.4083 51.0781 62.3483 52.6861L67.699 46.871C69.9239 44.4348 72.2457 41.9154 74.5191 39.448L74.5676 39.3994C74.7582 39.1395 75.0008 38.8969 75.2572 38.637C75.4305 38.4603 75.6246 38.2801 75.8013 38.0687C76.9865 38.9004 78.1856 39.7425 79.3396 40.5708C80.1713 41.1703 81.0203 41.7733 81.8867 42.3728C78.3883 44.1852 74.902 46.0208 71.4279 47.8795M63.7761 47.0997C61.4854 49.6157 59.115 52.1975 56.762 54.7481C52.1952 49.1288 47.615 43.5205 43.0213 37.9232L36.8562 30.4031L36.8424 30.3857C36.378 29.852 35.9275 29.2664 35.4804 28.7154C35.1928 28.3411 34.8878 27.9841 34.5829 27.6099C36.4404 28.095 38.3152 28.5525 40.1554 28.9891C41.7738 29.3807 43.4545 29.7862 45.1041 30.209L72.9839 37.0776C69.8927 40.4252 66.7841 43.8179 63.7761 47.0997M55.7189 78.7535C55.8956 77.0484 56.0897 75.2949 56.2491 73.5726C56.3946 72.1898 56.5367 70.7794 56.6823 69.4313C56.904 67.2689 57.1466 65.0302 57.3407 62.8365L57.3858 62.4484C57.5452 61.0483 57.7046 59.6067 57.8016 58.1581C57.9881 58.0528 58.1814 57.9602 58.3803 57.8809C58.6195 57.77 58.8586 57.6729 59.0977 57.5274C62.7965 55.5561 66.5011 53.5958 70.2115 51.6465C73.9126 49.6989 77.7073 47.6819 81.4708 45.6858C78.056 50.7012 74.6551 55.7262 71.2685 60.7607C68.4025 64.9955 65.4569 69.3655 62.5251 73.6696C61.3745 75.3919 60.172 77.1455 59.0353 78.8332C57.7531 80.7184 56.4397 82.6487 55.1609 84.5859C55.3203 82.6348 55.5109 80.6699 55.7189 78.7535M33.4011 31.4427C33.1932 30.857 32.9645 30.2575 32.7739 29.6892C37.0988 34.9844 41.4515 40.3109 45.6967 45.4744C47.8903 48.1533 50.084 50.8182 52.2776 53.5144C52.7108 54.0168 53.144 54.554 53.5599 55.0738C54.1039 55.7392 54.648 56.4392 55.2406 57.1046C55.0465 58.775 54.8871 60.4661 54.7104 62.088C54.5995 63.2246 54.4886 64.3648 54.3604 65.5188V65.5326C54.3119 66.2604 54.2148 66.9951 54.1351 67.709L53.7678 70.9423L53.7505 71.0532C53.4628 74.335 53.1093 77.648 52.7732 80.8639C52.6311 82.1947 52.5029 83.5601 52.3573 84.9255C52.2776 84.6829 52.1841 84.4369 52.1009 84.2081C51.8568 83.5462 51.6222 82.8808 51.3974 82.212L49.682 77.3881L33.3977 31.4427" fill="black"/>
</g>
<path d="M86.2879 41.0421C83.519 39.0772 80.556 36.9805 77.6588 34.9013C77.5922 34.849 77.5228 34.8004 77.4509 34.7557C77.1114 34.4769 76.727 34.2578 76.3142 34.1077L76.2796 34.0903C68.5275 32.1881 60.7775 30.2774 53.0296 28.3584L32.2922 23.2399L31.7481 23.0944C31.1243 22.9176 30.4035 22.7201 29.6342 22.8171C29.4234 22.8494 29.2223 22.9275 29.045 23.0458L28.851 23.2087C28.608 23.4579 28.4223 23.7571 28.3069 24.0855L28.2584 24.2172V24.9622L28.293 25.0766C32.6595 37.5004 37.1439 50.1043 41.4688 62.2993C44.7991 71.6908 48.2611 81.415 51.6365 90.9658C51.8444 91.6139 52.437 92.0401 53.1752 92.1025H53.3346C53.6571 92.1108 53.9759 92.0321 54.2576 91.8748C54.5393 91.7175 54.7735 91.4873 54.9357 91.2084L67.6193 72.4497C70.7071 67.8857 73.7983 63.3078 76.8895 58.7438L80.6842 53.1228C82.7635 50.0385 84.9121 46.8537 87.0433 43.7521L87.1542 43.5927V43.3951C87.2028 42.8268 87.2166 41.6589 86.2879 41.0386M71.4279 47.8795C68.4476 49.4528 65.4083 51.0781 62.3483 52.6861L67.699 46.871C69.9239 44.4348 72.2457 41.9154 74.5191 39.448L74.5676 39.3994C74.7582 39.1395 75.0008 38.8969 75.2572 38.637C75.4305 38.4603 75.6246 38.2801 75.8013 38.0687C76.9865 38.9004 78.1856 39.7425 79.3396 40.5708C80.1713 41.1703 81.0203 41.7733 81.8867 42.3728C78.3883 44.1852 74.902 46.0208 71.4279 47.8795M63.7761 47.0997C61.4854 49.6157 59.115 52.1975 56.762 54.7481C52.1952 49.1288 47.615 43.5205 43.0213 37.9232L36.8562 30.4031L36.8424 30.3857C36.378 29.852 35.9275 29.2664 35.4804 28.7154C35.1928 28.3411 34.8878 27.9841 34.5829 27.6099C36.4404 28.095 38.3152 28.5525 40.1554 28.9891C41.7738 29.3807 43.4545 29.7862 45.1041 30.209L72.9839 37.0776C69.8927 40.4252 66.7841 43.8179 63.7761 47.0997M55.7189 78.7535C55.8956 77.0484 56.0897 75.2949 56.2491 73.5726C56.3946 72.1898 56.5367 70.7794 56.6823 69.4313C56.904 67.2689 57.1466 65.0302 57.3407 62.8365L57.3858 62.4484C57.5452 61.0483 57.7046 59.6067 57.8016 58.1581C57.9881 58.0528 58.1814 57.9602 58.3803 57.8809C58.6195 57.77 58.8586 57.6729 59.0977 57.5274C62.7965 55.5561 66.5011 53.5958 70.2115 51.6465C73.9126 49.6989 77.7073 47.6819 81.4708 45.6858C78.056 50.7012 74.6551 55.7262 71.2685 60.7607C68.4025 64.9955 65.4569 69.3655 62.5251 73.6696C61.3745 75.3919 60.172 77.1455 59.0353 78.8332C57.7531 80.7184 56.4397 82.6487 55.1609 84.5859C55.3203 82.6348 55.5109 80.6699 55.7189 78.7535M33.4011 31.4427C33.1932 30.857 32.9645 30.2575 32.7739 29.6892C37.0988 34.9844 41.4515 40.3109 45.6967 45.4744C47.8903 48.1533 50.084 50.8182 52.2776 53.5144C52.7108 54.0168 53.144 54.554 53.5599 55.0738C54.1039 55.7392 54.648 56.4392 55.2406 57.1046C55.0465 58.775 54.8871 60.4661 54.7104 62.088C54.5995 63.2246 54.4886 64.3648 54.3604 65.5188V65.5326C54.3119 66.2604 54.2148 66.9951 54.1351 67.709L53.7678 70.9423L53.7505 71.0532C53.4628 74.335 53.1093 77.648 52.7732 80.8639C52.6311 82.1947 52.5029 83.5601 52.3573 84.9255C52.2776 84.6829 52.1841 84.4369 52.1009 84.2081C51.8568 83.5462 51.6222 82.8808 51.3974 82.212L49.682 77.3881L33.3977 31.4427" fill="white"/>
<defs>
<filter id="filter0_d_7_207" x="0.534518" y="0.267259" width="110.895" height="110.895" filterUnits="userSpaceOnUse" color-interpolation-filters="sRGB">
<feFlood flood-opacity="0" result="BackgroundImageFix"/>
<feColorMatrix in="SourceAlpha" type="matrix" values="0 0 0 0 0 0 0 0 0 0 0 0 0 0 0 0 0 0 127 0" result="hardAlpha"/>
<feOffset dy="1.73274"/>
<feGaussianBlur stdDeviation="1.73274"/>
<feComposite in2="hardAlpha" operator="out"/>
<feColorMatrix type="matrix" values="0 0 0 0 0 0 0 0 0 0 0 0 0 0 0 0 0 0 0.199474 0"/>
<feBlend mode="normal" in2="BackgroundImageFix" result="effect1_dropShadow_7_207"/>
<feBlend mode="normal" in="SourceGraphic" in2="effect1_dropShadow_7_207" result="shape"/>
</filter>
<filter id="filter1_d_7_207" x="24.7929" y="21.0588" width="65.8445" height="76.2425" filterUnits="userSpaceOnUse" color-interpolation-filters="sRGB">
<feFlood flood-opacity="0" result="BackgroundImageFix"/>
<feColorMatrix in="SourceAlpha" type="matrix" values="0 0 0 0 0 0 0 0 0 0 0 0 0 0 0 0 0 0 127 0" result="hardAlpha"/>
<feOffset dy="1.73274"/>
<feGaussianBlur stdDeviation="1.73274"/>
<feColorMatrix type="matrix" values="0 0 0 0 0 0 0 0 0 0 0 0 0 0 0 0 0 0 0.204257 0"/>
<feBlend mode="normal" in2="BackgroundImageFix" result="effect1_dropShadow_7_207"/>
<feBlend mode="normal" in="SourceGraphic" in2="effect1_dropShadow_7_207" result="shape"/>
</filter>
<linearGradient id="paint0_linear_7_207" x1="5202.22" y1="2" x2="5202.22" y2="10398.4" gradientUnits="userSpaceOnUse">
<stop stop-color="white" stop-opacity="0.5"/>
<stop offset="1" stop-opacity="0.5"/>
</linearGradient>
</defs>
</svg>
